<svg width="72" height="72" viewBox="0 0 72 72" fill="none" xmlns="http://www.w3.org/2000/svg" class="d-talent-keys-active electro"><path d="M57.74 20.603l1.265-.913A28.388 28.388 0 0039.598 8.125a5.868 5.868 0 01-2.7-3.48l-.85-3.02-.898 3.004a5.875 5.875 0 01-3.004 3.543A28.357 28.357 0 0013.059 19.69l1.264.913A26.805 26.805 0 0133.16 9.616a5.883 5.883 0 012.107 2.302l.702 1.412.734-1.405a5.86 5.86 0 012.224-2.34 26.798 26.798 0 0118.814 11.018z" fill="#CC80FF" fill-opacity=".25"></path><path fill-rule="evenodd" clip-rule="evenodd" d="M15.364 48.671a5.916 5.916 0 00-.983 2.622 26.6 26.6 0 0019.337 11.424l-.157 1.561a28.148 28.148 0 01-19.508-10.792l-.43-.28a5.838 5.838 0 00-4.572-.86L6 53.128l2.162-2.27a5.868 5.868 0 001.67-4.34v-.725a28.396 28.396 0 01-1.678-9.637 28.091 28.091 0 012.419-11.448L12 25.34a26.876 26.876 0 00-1.56 4.628c-.032.125.288.6.288.6l5.977 5.97-5.852 5.853s-.289.366-.289.483a27.011 27.011 0 001.381 4.011 5.828 5.828 0 002.731.531l1.561-.062-.874 1.318zm-5.228-7.764l4.362-4.362-4.471-4.487c-.084.447-.125.89-.125 1.327-.047.078.366.234.366.234l2.896 2.95-2.778 2.777a3.38 3.38 0 00-.375.78l.014.09c.034.23.07.463.11.691zm-.422-5.587v.835c0 .53.024 1.061.047 1.584l1.179-1.194-1.226-1.225zM62.262 47.72a5.845 5.845 0 001.56 3.846L66 53.83l-3.035-.78a5.86 5.86 0 00-4.246.514 28.147 28.147 0 01-19.438 10.738l-.156-1.561a26.53 26.53 0 0018.486-10.3 5.83 5.83 0 00-.89-3.216l-.795-1.373 1.56.102a5.86 5.86 0 003.294-.78 26.181 26.181 0 001.56-4.44 2.42 2.42 0 00-.242-.344l-5.844-5.853 5.977-5.977s.265-.281.265-.328a26.195 26.195 0 00-1.56-4.682l1.435-.624a28.482 28.482 0 01-.109 22.793zm.858-11.542v-.023c0-.128-.004-.256-.008-.38a10.985 10.985 0 01-.007-.346l-1.147 1.14 1.116 1.115c.047-.499.047-.998.047-1.506zm-.273-4.01l-4.409 4.4 4.292 4.292c.063-.343.117-.694.164-1.045a3.82 3.82 0 00-.343-.468l-2.778-2.779 3.215-3.215a27.427 27.427 0 00-.14-1.186z" fill="#CC80FF" fill-opacity=".25"></path><path d="M60.499 24.083l-3.8.297 2.161-3.145 3.8-.297-2.161 3.145zM15.918 24.387l-2.161-3.152-3.809-.297 2.162 3.153 3.808.296zM36.308 66.588l-1.646-3.441 1.646-3.45 1.647 3.45-1.647 3.441z" fill="#CC80FF" fill-opacity=".25"></path></svg>